<svg width="117" height="117" viewBox="0 0 117 117" fill="none" xmlns="http://www.w3.org/2000/svg">
<mask id="mask0_1458_20" style="mask-type:luminance" maskUnits="userSpaceOnUse" x="0" y="0" width="117" height="117">
<path d="M117 0H0V117H117V0Z" fill="white"/>
</mask>
<g mask="url(#mask0_1458_20)">
<path d="M93.4394 0H23.5606C10.5485 0 0 10.5485 0 23.5606V93.4394C0 106.452 10.5485 117 23.5606 117H93.4394C106.452 117 117 106.452 117 93.4394V23.5606C117 10.5485 106.452 0 93.4394 0Z" fill="#004880"/>
<path d="M38.2321 26.0237L35.3406 36.5725H46.2641H50.655H60.2399L50.9763 70.3606L41.0701 77.054L36.4651 72.3954L43.1584 47.9244H32.2348L24.7383 75.394L39.6243 90.762L60.1328 76.9469L74.055 26.0237H38.2321Z" fill="#E7E5F9"/>
<path d="M92.2088 80.4275H64.418V90.9762H92.2088V80.4275Z" fill="#E7E5F9"/>
</g>
</svg>
